<svg width="21" height="20" viewBox="0 0 21 20" fill="none" xmlns="http://www.w3.org/2000/svg">
<path fill-rule="evenodd" clip-rule="evenodd" d="M14.0837 4.99967C14.7006 4.99967 15.2392 4.66451 15.5273 4.16634H17.417C17.8772 4.16634 18.2503 4.53944 18.2503 4.99967V6.77136C16.8127 7.14139 15.7503 8.44651 15.7503 9.99967C15.7503 11.5528 16.8127 12.8579 18.2503 13.228V14.9997C18.2503 15.4599 17.8772 15.833 17.417 15.833H15.5273C15.2392 15.3348 14.7006 14.9997 14.0837 14.9997C13.4667 14.9997 12.9282 15.3348 12.64 15.833H4.08366C3.62343 15.833 3.25033 15.4599 3.25033 14.9997V13.228C4.68802 12.8579 5.75033 11.5528 5.75033 9.99967C5.75033 8.44651 4.68802 7.14139 3.25033 6.77136V4.99967C3.25033 4.53944 3.62343 4.16634 4.08366 4.16634H12.64C12.9282 4.66451 13.4667 4.99967 14.0837 4.99967ZM16.5837 9.99967C16.5837 8.61892 17.7029 7.49967 19.0837 7.49967V4.99967C19.0837 4.0792 18.3375 3.33301 17.417 3.33301H14.917C14.917 3.79324 14.5439 4.16634 14.0837 4.16634C13.6234 4.16634 13.2503 3.79324 13.2503 3.33301H4.08366C3.16318 3.33301 2.41699 4.0792 2.41699 4.99967V7.49967C3.7977 7.49967 4.91699 8.61892 4.91699 9.99967C4.91699 11.3804 3.7977 12.4997 2.41699 12.4997V14.9997C2.41699 15.9202 3.16318 16.6663 4.08366 16.6663H13.2503C13.2503 16.2061 13.6234 15.833 14.0837 15.833C14.5439 15.833 14.917 16.2061 14.917 16.6663H17.417C18.3375 16.6663 19.0837 15.9202 19.0837 14.9997V12.4997C17.7029 12.4997 16.5837 11.3804 16.5837 9.99967ZM14.0837 7.49967C14.5439 7.49967 14.917 7.12658 14.917 6.66634C14.917 6.20611 14.5439 5.83301 14.0837 5.83301C13.6234 5.83301 13.2503 6.20611 13.2503 6.66634C13.2503 7.12658 13.6234 7.49967 14.0837 7.49967ZM14.0837 10.833C14.5439 10.833 14.917 10.4599 14.917 9.99967C14.917 9.53942 14.5439 9.16634 14.0837 9.16634C13.6234 9.16634 13.2503 9.53942 13.2503 9.99967C13.2503 10.4599 13.6234 10.833 14.0837 10.833ZM14.917 13.333C14.917 13.7933 14.5439 14.1663 14.0837 14.1663C13.6234 14.1663 13.2503 13.7933 13.2503 13.333C13.2503 12.8728 13.6234 12.4997 14.0837 12.4997C14.5439 12.4997 14.917 12.8728 14.917 13.333Z" fill="#707070"/>
</svg>
